<svg width="236" height="76" viewBox="0 0 236 76" fill="none" xmlns="http://www.w3.org/2000/svg">
<path d="M30.16 74H21.04V10.736H0.304V4.112H51.184V10.736H30.16V74ZM68.1655 75.248C61.4455 75.248 56.1655 72.816 52.3255 67.952C48.5495 63.024 46.6615 57.104 46.6615 50.192C46.6615 43.344 48.5815 37.456 52.4215 32.528C56.2615 27.6 61.5095 25.136 68.1655 25.136C74.9495 25.136 80.2295 27.568 84.0055 32.432C87.8455 37.296 89.7655 43.216 89.7655 50.192C89.7655 57.168 87.8455 63.088 84.0055 67.952C80.2295 72.816 74.9495 75.248 68.1655 75.248ZM68.1655 69.2C71.3015 69.2 73.8935 68.144 75.9415 66.032C78.0535 63.92 79.4615 61.52 80.1655 58.832C80.9335 56.08 81.3175 53.2 81.3175 50.192C81.3175 47.184 80.9335 44.336 80.1655 41.648C79.3975 38.896 77.9575 36.464 75.8455 34.352C73.7975 32.24 71.2375 31.184 68.1655 31.184C65.0935 31.184 62.5015 32.24 60.3895 34.352C58.3415 36.464 56.9335 38.896 56.1655 41.648C55.4615 44.336 55.1095 47.184 55.1095 50.192C55.1095 53.008 55.5255 55.792 56.3575 58.544C57.1895 61.296 58.6295 63.76 60.6775 65.936C62.7895 68.112 65.2855 69.2 68.1655 69.2ZM142.386 73.808L133.938 74.864C133.042 72.88 132.434 70.704 132.114 68.336C128.53 72.944 123.826 75.248 118.002 75.248C111.73 75.248 106.866 72.784 103.41 67.856C99.9543 62.928 98.2263 57.168 98.2263 50.576C98.2263 43.536 100.05 37.552 103.698 32.624C107.41 27.696 112.69 25.232 119.538 25.232C124.466 25.232 128.466 26.64 131.538 29.456V6.512L130.194 0.847998H139.41V60.272C139.41 65.968 140.402 70.48 142.386 73.808ZM131.538 61.904V45.776C131.538 41.68 130.546 38.32 128.562 35.696C126.642 33.072 123.698 31.76 119.73 31.76C117.298 31.76 115.186 32.304 113.394 33.392C111.666 34.48 110.322 35.952 109.362 37.808C108.466 39.6 107.794 41.52 107.346 43.568C106.898 45.552 106.674 47.696 106.674 50C106.674 54.992 107.794 59.28 110.034 62.864C112.274 66.448 115.73 68.24 120.402 68.24C124.114 68.24 127.826 66.128 131.538 61.904ZM173.166 75.248C166.446 75.248 161.166 72.816 157.326 67.952C153.55 63.024 151.662 57.104 151.662 50.192C151.662 43.344 153.582 37.456 157.422 32.528C161.262 27.6 166.51 25.136 173.166 25.136C179.95 25.136 185.23 27.568 189.006 32.432C192.846 37.296 194.766 43.216 194.766 50.192C194.766 57.168 192.846 63.088 189.006 67.952C185.23 72.816 179.95 75.248 173.166 75.248ZM173.166 69.2C176.302 69.2 178.894 68.144 180.942 66.032C183.054 63.92 184.462 61.52 185.166 58.832C185.934 56.08 186.318 53.2 186.318 50.192C186.318 47.184 185.934 44.336 185.166 41.648C184.398 38.896 182.958 36.464 180.846 34.352C178.798 32.24 176.238 31.184 173.166 31.184C170.094 31.184 167.502 32.24 165.39 34.352C163.342 36.464 161.934 38.896 161.166 41.648C160.462 44.336 160.109 47.184 160.109 50.192C160.109 53.008 160.526 55.792 161.358 58.544C162.19 61.296 163.63 63.76 165.678 65.936C167.79 68.112 170.286 69.2 173.166 69.2ZM203.802 71.216L207.162 65.36C210.874 67.92 214.266 69.2 217.338 69.2C219.962 69.2 222.234 68.688 224.154 67.664C226.074 66.64 227.034 64.912 227.034 62.48C227.034 60.56 226.266 58.896 224.73 57.488C223.194 56.016 221.306 54.768 219.066 53.744C216.89 52.72 214.714 51.664 212.538 50.576C210.362 49.424 208.506 47.888 206.97 45.968C205.434 44.048 204.666 41.744 204.666 39.056C204.666 34.576 206.298 31.152 209.562 28.784C212.826 26.352 216.794 25.136 221.466 25.136C226.33 25.136 230.586 26.256 234.234 28.496L231.45 34.64C228.442 32.336 225.402 31.184 222.33 31.184C219.834 31.184 217.626 31.696 215.706 32.72C213.786 33.744 212.826 35.408 212.826 37.712C212.826 39.632 213.594 41.328 215.13 42.8C216.666 44.208 218.522 45.424 220.698 46.448C222.938 47.408 225.146 48.464 227.322 49.616C229.562 50.704 231.45 52.24 232.986 54.224C234.522 56.208 235.29 58.576 235.29 61.328C235.29 66.064 233.658 69.584 230.394 71.888C227.194 74.128 223.098 75.248 218.106 75.248C213.818 75.248 209.05 73.904 203.802 71.216Z" fill="black"/>
</svg>
